<svg width="100%" viewBox="0 0 680 400" xmlns="http://www.w3.org/2000/svg">
  <defs>
    <style>
      .nav-text { font-family: 'Courier New', monospace; font-size: 13px; fill: #e2e2e2; }
    </style>
  </defs>

  <rect width="680" height="400" fill="#0d0d1a"/>

  <!-- Stars -->
  <g fill="#ffffff" opacity="0.6">
    <circle cx="42" cy="22" r="1"/><circle cx="110" cy="55" r="0.8"/><circle cx="190" cy="18" r="1.1"/>
    <circle cx="260" cy="70" r="0.7"/><circle cx="340" cy="30" r="1"/><circle cx="400" cy="60" r="0.8"/>
    <circle cx="480" cy="15" r="1.2"/><circle cx="560" cy="45" r="0.9"/><circle cx="630" cy="25" r="1"/>
    <circle cx="75" cy="120" r="0.8"/><circle cx="155" cy="150" r="1"/><circle cx="230" cy="200" r="0.7"/>
    <circle cx="310" cy="130" r="0.9"/><circle cx="595" cy="110" r="1.1"/><circle cx="648" cy="175" r="0.8"/>
    <circle cx="20" cy="270" r="1"/><circle cx="90" cy="320" r="0.7"/><circle cx="170" cy="360" r="0.9"/>
    <circle cx="250" cy="290" r="0.8"/><circle cx="320" cy="375" r="1"/><circle cx="610" cy="300" r="0.9"/>
    <circle cx="655" cy="360" r="1.1"/><circle cx="500" cy="380" r="0.8"/><circle cx="450" cy="200" r="0.7"/>
    <circle cx="530" cy="260" r="0.9"/>
  </g>

  <!-- Navbar -->
  <rect x="0" y="0" width="680" height="52" fill="#0d0d1a" opacity="0.95"/>
  <line x1="0" y1="52" x2="680" y2="52" stroke="#2a2a3e" stroke-width="0.5"/>

  <!-- Avatar -->
  <circle cx="38" cy="26" r="16" fill="#3a2a5a" stroke="#c778dd" stroke-width="1"/>
  <circle cx="38" cy="22" r="7" fill="#c778dd" opacity="0.8"/>
  <ellipse cx="38" cy="36" rx="10" ry="6" fill="#c778dd" opacity="0.6"/>

  <!-- Nav links -->
  <text x="240" y="31" font-family="'Courier New', monospace" font-size="12" fill="#e2e2e2">&#8962;  Home</text>
  <text x="320" y="31" font-family="'Courier New', monospace" font-size="12" fill="#e2e2e2">&#9711;  About</text>
  <text x="400" y="31" font-family="'Courier New', monospace" font-size="12" fill="#e2e2e2">&#8862;  Projects</text>
  <text x="490" y="31" font-family="'Courier New', monospace" font-size="12" fill="#e2e2e2">&#8801;  Resume</text>

  <!-- Star pill button -->
  <rect x="568" y="13" width="90" height="26" rx="5" fill="#6c3fa0" stroke="#9a5fd4" stroke-width="0.8"/>
  <text x="613" y="30" font-family="'Courier New', monospace" font-size="12" fill="#ffffff" text-anchor="middle">&#10022;  &#9733;</text>

  <!-- Hero text left -->
  <text x="60" y="130" font-family="'Courier New', monospace" font-size="26" fill="#e8e8e8" font-weight="400">Hi There! &#128075;</text>
  <text x="60" y="168" font-family="'Courier New', monospace" font-size="26" fill="#e8e8e8" font-weight="400">I'M </text>
  <text x="120" y="168" font-family="'Courier New', monospace" font-size="26" fill="#c778dd" font-weight="700">ABHAY SHARMA</text>
  <text x="60" y="220" font-family="'Courier New', monospace" font-size="18" fill="#c778dd">Software Developer</text>
  <rect x="258" y="202" width="10" height="20" fill="#c778dd" rx="1">
    <animate attributeName="opacity" values="1;0;1" dur="1s" repeatCount="indefinite"/>
  </rect>

  <!-- Monitor -->
  <rect x="430" y="90" width="160" height="110" rx="8" fill="#1a1a2e" stroke="#5a3a8a" stroke-width="1.5"/>
  <rect x="440" y="100" width="140" height="90" rx="4" fill="#0f0f1f"/>
  <text x="510" y="150" font-family="'Courier New', monospace" font-size="32" fill="#6a3ab0" text-anchor="middle" font-weight="700">&lt;/&gt;</text>
  <rect x="448" y="115" width="60" height="4" rx="2" fill="#6c3fa0" opacity="0.7"/>
  <rect x="448" y="124" width="90" height="4" rx="2" fill="#9a5fd4" opacity="0.5"/>
  <rect x="448" y="133" width="75" height="4" rx="2" fill="#6c3fa0" opacity="0.6"/>
  <rect x="448" y="142" width="100" height="4" rx="2" fill="#9a5fd4" opacity="0.4"/>
  <rect x="448" y="162" width="50" height="4" rx="2" fill="#6c3fa0" opacity="0.5"/>
  <rect x="448" y="171" width="80" height="4" rx="2" fill="#9a5fd4" opacity="0.4"/>
  <rect x="495" y="200" width="20" height="18" rx="2" fill="#2a2a4a"/>
  <rect x="480" y="216" width="50" height="6" rx="3" fill="#2a2a4a"/>

  <!-- Desk -->
  <rect x="385" y="260" width="210" height="10" rx="3" fill="#2a2a3a"/>
  <rect x="400" y="270" width="10" height="50" rx="2" fill="#2a2a3a"/>
  <rect x="575" y="270" width="10" height="50" rx="2" fill="#2a2a3a"/>

  <!-- Chair -->
  <rect x="470" y="220" width="18" height="50" rx="4" fill="#3a2560"/>
  <rect x="452" y="268" width="52" height="12" rx="4" fill="#3a2560"/>
  <line x1="458" y1="280" x2="455" y2="320" stroke="#3a2560" stroke-width="5" stroke-linecap="round"/>
  <line x1="496" y1="280" x2="499" y2="320" stroke="#3a2560" stroke-width="5" stroke-linecap="round"/>

  <!-- Person -->
  <ellipse cx="479" cy="252" rx="18" ry="20" fill="#9a5fd4"/>
  <circle cx="479" cy="224" r="16" fill="#e8b88a"/>
  <ellipse cx="479" cy="212" rx="16" ry="9" fill="#2a1a10"/>
  <line x1="461" y1="258" x2="440" y2="270" stroke="#e8b88a" stroke-width="7" stroke-linecap="round"/>
  <line x1="497" y1="258" x2="520" y2="270" stroke="#e8b88a" stroke-width="7" stroke-linecap="round"/>
  <ellipse cx="438" cy="271" rx="7" ry="5" fill="#e8b88a"/>
  <ellipse cx="522" cy="271" rx="7" ry="5" fill="#e8b88a"/>
  <rect x="462" y="272" width="14" height="30" rx="6" fill="#2a1a50"/>
  <rect x="482" y="272" width="14" height="30" rx="6" fill="#2a1a50"/>
  <ellipse cx="469" cy="304" rx="10" ry="6" fill="#1a1a1a"/>
  <ellipse cx="489" cy="304" rx="10" ry="6" fill="#1a1a1a"/>

  <!-- Laptop -->
  <rect x="420" y="247" width="52" height="12" rx="2" fill="#1e1e2e" stroke="#5a3a8a" stroke-width="0.8"/>
  <rect x="418" y="258" width="56" height="4" rx="1" fill="#2a2a4a"/>

  <!-- Coffee -->
  <rect x="545" y="248" width="18" height="14" rx="3" fill="#f0a060"/>
  <rect x="543" y="248" width="3" height="10" rx="1" fill="#c87030" opacity="0.6"/>

  <!-- Notebook -->
  <rect x="540" y="257" width="30" height="5" rx="1" fill="#e8e8e8" opacity="0.7"/>

  <!-- Plant -->
  <rect x="600" y="290" width="14" height="18" rx="3" fill="#5a3a1a"/>
  <ellipse cx="607" cy="285" rx="10" ry="14" fill="#3a7a3a"/>
  <ellipse cx="600" cy="278" rx="8" ry="11" fill="#4a9a4a"/>
  <ellipse cx="614" cy="280" rx="7" ry="10" fill="#3a8a3a"/>

  <!-- Glow + carpet -->
  <ellipse cx="479" cy="325" rx="60" ry="8" fill="#6c3fa0" opacity="0.12"/>
  <ellipse cx="490" cy="326" rx="90" ry="12" fill="#1e1430" opacity="0.6"/>
</svg>
